:SAMPLES-PER-SECOND 30
:FRAME-RANGE 1-564
:FULLY-SPECIFIED
:DEGREES
529
root  43.4837 38.1564 -138.389 0.589844 -68.4048 2.40665
RightUpLeg  -0.922467 -6.42291 -4.41503
RightLeg  7.864 -16.9867 -0.853023
RightFoot  -6.6287 -0.318958 6.61284
RightToes  1.21801e-010 1.2921e-014 -6.02303e-014
Spine  -12.8406 -1.92128 1.22252
Spine1  12.2384 -1.62347 -2.20327
HEad  8.86455 10.1335 -1.99976
LeftShoulder1  0.903535 -0.134388 -20.0502
LeftArm  -7.39343 7.73902 -52.6207
LeftForeArm  30.9827 3.75184 -10.8805
LeftHand  -0.0286093 5.34517 0.766786
RightShoulder  1.2261 0.210705 28.8593
RightArm  -28.6912 1.15081 49.9923
RightForeArm  70.5554 -4.95005 1.52894
RightHand  0.716199 -9.62911 -19.918
LeftUpLeg  -1.22636 3.47263 0.292899
LeftLeg  5.47385 16.7136 3.17684
LeftFoot  -5.98382 0.201015 -3.58839
LeftToes  1.70735e-010 3.74918e-011 3.68705e-011
530
root  43.4645 38.1473 -138.411 0.623047 -68.6997 2.36887
RightUpLeg  -1.13134 -6.51538 -4.33211
RightLeg  8.21643 -16.5737 -0.984711
RightFoot  -6.71869 -0.315329 6.55686
RightToes  1.21801e-010 1.2921e-014 -6.02303e-014
Spine  -12.7311 -1.65446 1.37491
Spine1  12.0372 -1.23324 -2.67668
HEad  9.16243 9.81088 -1.77872
LeftShoulder1  1.02939 -0.688102 -19.5265
LeftArm  -7.1267 7.50073 -52.8732
LeftForeArm  30.4408 4.27475 -11.0028
LeftHand  -0.0291793 5.12823 1.01175
RightShoulder  1.07239 -0.299812 29.6555
RightArm  -28.0265 1.50382 49.4734
RightForeArm  70.2432 -5.02671 1.91067
RightHand  0.727071 -9.70242 -19.8743
LeftUpLeg  -1.28219 3.44471 0.294068
LeftLeg  5.7063 17.0518 3.37832
LeftFoot  -6.04991 0.205539 -3.66192
LeftToes  1.70735e-010 3.74918e-011 3.68705e-011
531
root  43.4511 38.1468 -138.427 0.682983 -68.83 2.28412
RightUpLeg  -1.20008 -6.60059 -4.28488
RightLeg  8.38009 -16.3655 -0.999714
RightFoot  -6.74177 -0.312111 6.5148
RightToes  1.21801e-010 1.2921e-014 -6.02303e-014
Spine  -12.7626 -1.6536 1.21622
Spine1  12.1019 -1.28959 -2.42623
HEad  9.43116 9.78482 -2.00746
LeftShoulder1  1.00433 -0.560483 -19.7438
LeftArm  -7.24914 7.23845 -52.924
LeftForeArm  30.5658 4.38726 -10.9448
LeftHand  -0.0296254 4.85673 0.879572
RightShoulder  1.10821 -0.171836 29.3422
RightArm  -28.0468 1.70251 49.8035
RightForeArm  70.3619 -5.01757 1.88395
RightHand  0.713306 -9.6282 -19.8484
LeftUpLeg  -1.29553 3.3982 0.305063
LeftLeg  5.83799 17.2286 3.52831
LeftFoot  -6.07725 0.211937 -3.76805
LeftToes  1.70735e-010 3.74918e-011 3.68705e-011
532
root  43.4407 38.1403 -138.43 0.806 -68.8585 2.08612
RightUpLeg  -1.16205 -6.57618 -4.21025
RightLeg  8.46488 -16.3291 -1.01391
RightFoot  -6.7835 -0.315506 6.57915
RightToes  1.21801e-010 1.2921e-014 -6.02303e-014
Spine  -12.7267 -1.64401 1.31964
Spine1  12.0446 -1.26748 -2.45776
HEad  9.68857 9.96375 -1.98852
LeftShoulder1  1.02806 -0.657811 -19.7022
LeftArm  -7.19295 7.37587 -53.0246
LeftForeArm  30.3881 4.00304 -10.966
LeftHand  -0.0298005 4.86171 0.931769
RightShoulder  1.12352 -0.133908 29.4067
RightArm  -27.6861 1.97487 49.8362
RightForeArm  70.2037 -5.05788 2.08647
RightHand  0.672077 -9.37171 -19.9227
LeftUpLeg  -1.14435 3.2913 0.333762
LeftLeg  5.64433 17.3861 3.62234
LeftFoot  -6.08346 0.210751 -3.76012
LeftToes  1.70735e-010 3.74918e-011 3.68705e-011
533
root  43.4222 38.1486 -138.437 0.866089 -68.9601 1.99918
RightUpLeg  -1.07042 -6.47865 -4.14484
RightLeg  8.33335 -16.3531 -0.99195
RightFoot  -6.71454 -0.310567 6.51335
RightToes  1.21801e-010 1.2921e-014 -6.02303e-014
Spine  -12.8152 -1.61119 1.33457
Spine1  12.068 -1.23006 -2.51565
HEad  9.75982 10.2308 -2.06952
LeftShoulder1  1.03685 -0.693161 -19.6922
LeftArm  -7.24589 7.411 -53.1976
LeftForeArm  30.6137 3.7418 -10.9482
LeftHand  -0.206224 1.67091 6.26571
RightShoulder  1.13295 -0.102755 29.3574
RightArm  -27.5037 2.18421 49.9754
RightForeArm  69.9027 -5.08684 2.18887
RightHand  0.709688 -9.5773 -19.9799
LeftUpLeg  -1.22077 3.27878 0.343905
LeftLeg  5.97121 17.4972 3.80503
LeftFoot  -6.07485 0.219967 -3.91623
LeftToes  1.70735e-010 3.74918e-011 3.68705e-011
534
root  43.4093 38.149 -138.439 0.787598 -69.0146 2.07211
RightUpLeg  -1.06773 -6.43304 -4.14527
RightLeg  8.36463 -16.2893 -1.03516
RightFoot  -6.72641 -0.305867 6.44682
RightToes  1.21801e-010 1.2921e-014 -6.02303e-014
Spine  -12.8412 -1.59835 1.45923
Spine1  12.0099 -1.14122 -2.80982
HEad  9.63061 10.8667 -1.9661
LeftShoulder1  1.0038 -0.595566 -19.4784
LeftArm  -7.3794 7.21599 -53.4963
LeftForeArm  30.6645 3.92264 -10.9075
LeftHand  -0.029504 4.92017 0.886175
RightShoulder  1.12302 -0.144811 29.5157
RightArm  -27.1577 2.41725 50.0302
RightForeArm  69.6199 -5.13147 2.38903
RightHand  0.683436 -9.41793 -20.0136
LeftUpLeg  -1.15011 3.28447 0.343467
LeftLeg  5.89576 17.5534 3.77116
LeftFoot  -6.05083 0.223996 -3.99162
LeftToes  1.70735e-010 3.74918e-011 3.68705e-011
535
root  43.4019 38.1532 -138.437 0.771271 -68.9775 2.0762
RightUpLeg  -0.981312 -6.35852 -4.13372
RightLeg  8.25457 -16.4781 -1.0369
RightFoot  -6.69582 -0.31068 6.52776
RightToes  1.21801e-010 1.2921e-014 -6.02303e-014
Spine  -13.3568 -1.30944 0.359762
Spine1  12.9429 -1.21611 -1.0505
HEad  9.09477 10.5635 -2.76237
LeftShoulder1  1.11675 -0.930236 -20.1602
LeftArm  -7.33703 6.45369 -53.8096
LeftForeArm  30.6025 3.99705 -10.9161
LeftHand  -0.0298603 4.79006 0.899938
RightShoulder  0.938534 -0.593471 28.5181
RightArm  -26.6457 2.7123 50.432
RightForeArm  68.9289 -5.20537 2.6705
RightHand  0.65484 -9.27814 -19.8912
LeftUpLeg  -1.0912 3.27706 0.338157
LeftLeg  5.81897 17.5104 3.74664
LeftFoot  -6.0471 0.229538 -4.08862
LeftToes  1.70735e-010 3.74918e-011 3.68705e-011
